<svg width="23" height="23" viewBox="0 0 23 23" fill="none" xmlns="http://www.w3.org/2000/svg">
<path d="M20.19 8.46001L8.18996 20.46C7.91385 20.7302 7.56733 20.9173 7.18996 21L3.64996 21.71C3.32767 21.7737 2.99465 21.7571 2.68033 21.6616C2.366 21.566 2.08005 21.3945 1.84775 21.1622C1.61545 20.9299 1.44395 20.644 1.34841 20.3296C1.25287 20.0153 1.23623 19.6823 1.29996 19.36L1.99996 15.85C2.08263 15.4726 2.26975 15.1261 2.53996 14.85L14.38 3.00001C14.7665 2.6039 15.2285 2.28912 15.7385 2.0742C16.2486 1.85928 16.7965 1.74857 17.35 1.74857C17.9034 1.74857 18.4513 1.85928 18.9614 2.0742C19.4715 2.28912 19.9334 2.6039 20.32 3.00001C21.0089 3.75995 21.3796 4.75552 21.3554 5.78098C21.3312 6.80644 20.914 7.78341 20.19 8.51001V8.46001Z" stroke="#212325" stroke-width="2" stroke-linecap="round" stroke-linejoin="round"/>
</svg>
